<?xml version="1.0" standalone="no"?><!DOCTYPE svg PUBLIC "-//W3C//DTD SVG 1.1//EN" "http://www.w3.org/Graphics/SVG/1.1/DTD/svg11.dtd"><svg t="1672844222059" class="icon" viewBox="0 0 1024 1024" version="1.1" xmlns="http://www.w3.org/2000/svg" p-id="3696" xmlns:xlink="http://www.w3.org/1999/xlink" width="200" height="200"><path d="M512 853.994667q140.010667 0 241.002667-100.992t100.992-241.002667-100.992-241.002667-241.002667-100.992-241.002667 100.992-100.992 241.002667 100.992 241.002667 241.002667 100.992zM512 85.994667q176 0 300.992 124.992t124.992 300.992-124.992 300.992-300.992 124.992-300.992-124.992-124.992-300.992 124.992-300.992 300.992-124.992zM469.994667 298.005333l84.010667 0 0 256-84.010667 0 0-256zM469.994667 640l84.010667 0 0 85.994667-84.010667 0 0-85.994667z" fill="#d81e06" p-id="3697"></path></svg>