<?xml version="1.0" standalone="no"?><!DOCTYPE svg PUBLIC "-//W3C//DTD SVG 1.1//EN" "http://www.w3.org/Graphics/SVG/1.1/DTD/svg11.dtd"><svg t="1672851493972" class="icon" viewBox="0 0 1024 1024" version="1.1" xmlns="http://www.w3.org/2000/svg" p-id="7973" xmlns:xlink="http://www.w3.org/1999/xlink" width="200" height="200"><path d="M38.72 410.624l384-329.152a88 88 0 0 1 114.56 0l384 329.152c19.52 16.704 30.72 41.12 30.72 66.816V896A88 88 0 0 1 864 984h-170.656a88 88 0 0 1-88-88v-160c0-22.08-17.92-40-40-40h-170.688c-22.08 0-40 17.92-40 40v160a88 88 0 0 1-88 88H96A88 88 0 0 1 8 896V477.44c0-25.696 11.2-50.112 30.72-66.816z" fill="#ffffff" p-id="7974"></path></svg>