<?xml version="1.0" standalone="no"?><!DOCTYPE svg PUBLIC "-//W3C//DTD SVG 1.1//EN" "http://www.w3.org/Graphics/SVG/1.1/DTD/svg11.dtd"><svg t="1672844234376" class="icon" viewBox="0 0 1024 1024" version="1.1" xmlns="http://www.w3.org/2000/svg" p-id="3890" xmlns:xlink="http://www.w3.org/1999/xlink" width="200" height="200"><path d="M384 213.994667l512 0 0 170.005333-512 0 0-170.005333zM384 810.005333l0-170.005333 512 0 0 170.005333-512 0zM384 597.994667l0-172.010667 512 0 0 172.010667-512 0zM170.005333 384l0-170.005333 172.010667 0 0 170.005333-172.010667 0zM170.005333 810.005333l0-170.005333 172.010667 0 0 170.005333-172.010667 0zM170.005333 597.994667l0-172.010667 172.010667 0 0 172.010667-172.010667 0z" fill="#d81e06" p-id="3891"></path></svg>