<?xml version="1.0" standalone="no"?><!DOCTYPE svg PUBLIC "-//W3C//DTD SVG 1.1//EN" "http://www.w3.org/Graphics/SVG/1.1/DTD/svg11.dtd"><svg t="1672849392807" class="icon" viewBox="0 0 1024 1024" version="1.1" xmlns="http://www.w3.org/2000/svg" p-id="13145" xmlns:xlink="http://www.w3.org/1999/xlink" width="200" height="200"><path d="M945.85 795.37V479.56c-14.58 7.07-39.25 11.59-65.29 11.59H133.92c-24.33 0-44.59-3.25-57.07-9v313.22A61.4 61.4 0 0 0 138 856.54h746.67a61.4 61.4 0 0 0 61.18-61.18z m-353.52-155.7c-19.74 31-53.85 49.5-91.24 49.5s-71.5-18.51-91.24-49.51a13.49 13.49 0 0 1 22.75-14.49c14.76 23.18 40.37 37 68.49 37s53.73-13.84 68.49-37a13.49 13.49 0 1 1 22.75 14.49z" fill="#d81e06" p-id="13146"></path><path d="M945.5 310.39c-18.47-29.25-48.7-31.62-58-31.62-1.8 0-2.82 0.09-2.82 0.09s-109.7-1.12-245.43-2a25.86 25.86 0 0 0 3.86-13.6V171c0-16-14.89-29.08-33.2-29.08H412.79c-18.31 0-33.2 13-33.2 29.08v92.28a25.85 25.85 0 0 0 3.26 12.58h-16.41c-110.6 0-202.29 0.76-228.42 3a74.88 74.88 0 0 0-74.66 74.66v8.59c-0.06 2.36 0 3.72 0 3.72v429.54A74.88 74.88 0 0 0 138 870h746.67a74.88 74.88 0 0 0 74.66-74.66V353.52a74.12 74.12 0 0 0-13.83-43.13zM406.56 171.22c0.48-0.77 2.71-2.34 6.23-2.34H609.9c3.52 0 5.75 1.57 6.23 2.34v91.6a3.56 3.56 0 0 1-2.61 0 13.47 13.47 0 0 0-3.62-0.49H412.79a13.47 13.47 0 0 0-3.62 0.49 3.56 3.56 0 0 1-2.61 0zM138 856.54a61.4 61.4 0 0 1-61.18-61.18V482.19c12.48 5.71 32.74 9 57.07 9h746.67c26 0 50.71-4.53 65.29-11.59v315.8a61.4 61.4 0 0 1-61.18 61.18z m228.44-567.22h34.84a31 31 0 0 0 12.88 0c211.62 0.37 467.61 2.95 470.36 3h0.27a9.37 9.37 0 0 0 1 0h1.7a58.06 58.06 0 0 1 30.44 8.85c15.57 10 25 27.89 27.92 53.19v109.36c-1.7 1.68-7.29 5.33-19.8 8.63-13 3.43-29.18 5.32-45.49 5.32H133.92c-16.27 0-30.69-1.52-41.69-4.39s-14.49-6-15.38-6.93V365.82v-0.58A91.59 91.59 0 0 1 84 329.39a60.28 60.28 0 0 1 18-23.81c9.64-7.52 22.14-12 37.15-13.29 22.78-1.97 99.24-2.97 227.29-2.97z" fill="#d81e06" p-id="13147"></path><path d="M102 305.58a60.28 60.28 0 0 0-18 23.81 91.59 91.59 0 0 0-7.2 35.85v101.11c0.89 1 4.48 4.08 15.38 6.93s25.42 4.39 41.69 4.39h746.69c16.31 0 32.47-1.89 45.49-5.32 12.51-3.3 18.1-6.95 19.8-8.63V354.29c-3-25.29-12.35-43.18-27.92-53.19a58.06 58.06 0 0 0-30.44-8.85h-1.7a9.37 9.37 0 0 1-1 0h-0.27c-2.76 0-258.75-2.61-470.36-3a31 31 0 0 1-12.88 0h-34.84c-128.06 0-204.52 1-227.25 3-15.01 1.34-27.51 5.81-37.19 13.33zM588.2 621.05a13.49 13.49 0 0 0-18.62 4.13c-14.76 23.18-40.36 37-68.49 37s-53.73-13.84-68.49-37a13.49 13.49 0 0 0-22.75 14.49c19.74 31 53.85 49.51 91.24 49.51s71.5-18.5 91.24-49.5a13.49 13.49 0 0 0-4.13-18.63z" fill="#d81e06" p-id="13148"></path></svg>